<svg version="1.1" id="Layer_1" xmlns="http://www.w3.org/2000/svg" xmlns:xlink="http://www.w3.org/1999/xlink" x="0px" y="0px"
	 width="74.969px" height="74.968px" viewBox="0 0 74.969 74.968" enable-background="new 0 0 74.969 74.968" xml:space="preserve">
<polygon fill="#010202" points="31.504,0 0,31.632 0,74.968 43.336,74.968 74.969,43.464 31.504,43.464 "/>
<path fill="#010202" d="M69.883,35.256h5.085v-2.486h-2.372v-7.685h-2.714V35.256z M66.019,31.256h-1.314l0.643-4.2h0.028
	L66.019,31.256z M61.276,35.256h2.828l0.257-1.714h2l0.257,1.714h2.828l-1.985-10.17h-4.2L61.276,35.256z M57.71,31.256h-1.314
	l0.643-4.2h0.028L57.71,31.256z M52.967,35.256h2.829l0.257-1.714h2l0.257,1.714h2.829l-1.986-10.17h-4.199L52.967,35.256z
	 M46.706,34.87c0.557,0.314,1.313,0.557,2.399,0.557c2.857,0,3.815-1.8,3.815-3.299c0-3.343-3.428-2.614-3.428-3.9
	c0-0.5,0.542-0.743,1.157-0.743c0.586,0,1.2,0.272,1.771,0.701v-2.742c-0.314-0.244-1.356-0.529-2.271-0.529
	c-2.714,0-3.657,1.686-3.657,3.129c0,3.385,3.428,2.856,3.428,4.099c0,0.471-0.399,0.714-1.114,0.714
	c-0.843,0-1.671-0.543-2.1-0.886V34.87z"/>
<path fill="#010202" d="M71.926,22.757h2.714v-10.17h-2.714V22.757z M66.267,14.873c0.886,0.014,2.028,0.114,2.028,2.614
	c0,2.3-0.957,2.7-1.543,2.7h-0.485V14.873z M63.553,22.757h3.1c3.386,0,4.528-2.628,4.528-5.199c0-2.256-0.829-4.971-4.186-4.971
	h-3.442V22.757z M58.005,22.757h5.085v-2.485h-2.371v-7.685h-2.714V22.757z M54.22,22.757h2.714v-10.17H54.22V22.757z M49.79,18.801
	h1.014v0.672c0,0.528-0.285,0.885-0.971,0.885c-0.985,0-1.371-0.971-1.371-2.542c0-1.799,0.728-2.914,2.114-2.914
	c0.699,0,1.414,0.328,1.771,0.728v-2.785c-0.5-0.243-1.214-0.428-2.229-0.428c-2.871,0-4.456,2.313-4.456,5.242
	c0,3.128,1.228,5.271,4.027,5.271c2.4,0,3.6-1.429,3.6-3.528v-2.657h-3.5V18.801z"/>
<path fill="#010202" d="M71.926,10.259h2.714V0.089h-2.714V10.259z M67.094,10.259h2.715V2.46h1.741V0.089h-6.198V2.46h1.742V10.259
	z M57.865,6.888c0,2.687,1.615,3.543,3.543,3.543c1.928,0,3.543-0.857,3.543-3.543V0.089h-2.714v6.799
	c0,0.572-0.2,0.972-0.829,0.972c-0.628,0-0.829-0.4-0.829-0.972V0.089h-2.714V6.888z M49.165,10.259h2.485V3.746h0.028l2,6.514
	h3.099V0.089h-2.485v6.528h-0.029l-1.999-6.528h-3.1V10.259z M45.319,6.26h-1.314l0.643-4.2h0.029L45.319,6.26z M40.577,10.259
	h2.828l0.257-1.714h2l0.258,1.714h2.828l-1.986-10.17h-4.199L40.577,10.259z M33.056,10.259h2.714V5.174h0.028l1.757,5.085h2.943
	l-2.115-5.457l2.028-4.714h-2.785l-1.829,4.642h-0.028V0.089h-2.714V10.259z"/>
<rect x="33.202" y="38.078" fill="#010202" width="41.767" height="2.713"/>
</svg>
