<?xml version="1.0" encoding="utf-8"?>
<!-- Generator: Adobe Illustrator 15.1.0, SVG Export Plug-In . SVG Version: 6.00 Build 0)  -->
<!DOCTYPE svg PUBLIC "-//W3C//DTD SVG 1.1//EN" "http://www.w3.org/Graphics/SVG/1.1/DTD/svg11.dtd">
<svg version="1.1" id="Layer_1" xmlns="http://www.w3.org/2000/svg" xmlns:xlink="http://www.w3.org/1999/xlink" x="0px" y="0px"
	 width="84.331px" height="77.401px" viewBox="0 0 84.331 77.401" enable-background="new 0 0 84.331 77.401" xml:space="preserve">
<g>
	<polygon fill="#010202" points="77.437,45.17 45.146,77.401 0,77.399 0,32.227 32.232,0 32.232,45.17 	"/>
</g>
<g>
	<polygon fill="#010202" points="36.299,8.637 37.443,8.637 37.443,5.627 38.876,4.291 41.983,8.637 43.427,8.637 39.659,3.508 
		43.282,0.04 41.802,0.04 37.443,4.326 37.443,0.04 36.299,0.04 	"/>
</g>
<g>
	<path fill="#010202" d="M47.266,1.075h0.024l1.434,4.01H45.81L47.266,1.075z M43.306,8.637h1.18l0.963-2.589h3.635l0.941,2.589
		h1.264L47.929,0.04h-1.264L43.306,8.637z"/>
</g>
<g>
	<polygon fill="#010202" points="52.117,8.637 53.2,8.637 53.2,1.738 53.224,1.738 57.716,8.637 58.968,8.637 58.968,0.04 
		57.886,0.04 57.886,7.012 57.86,7.012 53.333,0.04 52.117,0.04 	"/>
</g>
<g>
	<path fill="#010202" d="M67.687,0.04h-1.145V5.53c0,1.517-0.793,2.348-2.238,2.348c-1.518,0-2.385-0.831-2.385-2.348V0.04h-1.145
		V5.53c0,2.288,1.312,3.311,3.529,3.311c2.143,0,3.383-1.143,3.383-3.311V0.04z"/>
</g>
<g>
	<polygon fill="#010202" points="71.468,8.637 72.611,8.637 72.611,1.003 75.479,1.003 75.479,0.04 68.603,0.04 68.603,1.003 
		71.468,1.003 	"/>
</g>
<g>
	<rect x="76.476" y="0.039" fill="#010202" width="1.145" height="8.597"/>
</g>
<g>
	<path fill="#010202" d="M35.216,36.523c-0.039,3.364,2.792,4.854,5.813,4.854c3.708,0,5.679-1.872,5.679-4.375
		c0-3.097-3.061-3.727-4.053-3.976c-3.424-0.879-4.073-1.013-4.073-2.064c0-1.146,1.109-1.547,2.064-1.547
		c1.434,0,2.601,0.42,2.695,2.064h2.907c0-3.154-2.619-4.396-5.467-4.396c-2.467,0-5.106,1.337-5.106,4.128
		c0,2.561,2.046,3.344,4.073,3.879c2.008,0.535,4.053,0.783,4.053,2.255c0,1.395-1.605,1.701-2.657,1.701
		c-1.606,0-3.021-0.708-3.021-2.523H35.216z"/>
</g>
<g>
	<path fill="#010202" d="M53.704,30.771h0.039l1.719,5.006h-3.537L53.704,30.771z M47.03,41.052h3.04l1.072-3.038h5.104l1.033,3.038
		h3.116L55.29,27.407h-3.078L47.03,41.052z"/>
</g>
<g>
	<path fill="#010202" d="M66.799,30.771h0.038l1.723,5.006h-3.539L66.799,30.771z M60.127,41.052h3.039l1.071-3.038h5.105
		l1.032,3.038h3.116l-5.105-13.645h-3.078L60.127,41.052z"/>
</g>
<g>
	<polygon fill="#010202" points="74.675,41.052 84.331,41.052 84.331,38.53 77.677,38.53 77.677,27.407 74.675,27.407 	"/>
</g>
<g>
	<path fill="#010202" d="M46.048,24.221h1.043v-6.537h-5.441v1.391h3.963c0.105,2.26-1.426,4.051-3.981,4.051
		c-2.765,0-4.261-2.365-4.261-4.955c0-2.661,1.252-5.268,4.261-5.268c1.842,0,3.356,0.852,3.686,2.73h1.652
		c-0.47-2.904-2.625-4.121-5.338-4.121c-3.931,0-5.913,3.129-5.913,6.745c0,3.234,2.208,6.259,5.913,6.259
		c1.46,0,3.026-0.539,3.981-1.843L46.048,24.221z"/>
</g>
<g>
	<rect x="49.593" y="11.808" fill="#010202" width="1.654" height="12.413"/>
</g>
<g>
	<polygon fill="#010202" points="54.022,24.221 62.249,24.221 62.249,22.83 55.675,22.83 55.675,11.808 54.022,11.808 	"/>
</g>
<g>
	<path fill="#010202" d="M65.345,13.198h2.783c3.043,0,4.139,1.792,4.139,4.747c0,4.572-3.043,4.885-4.174,4.885h-2.748V13.198z
		 M63.693,24.221h4.261c4.139,0,5.965-2.348,5.965-6.502c0-3.999-2.139-5.911-5.965-5.911h-4.261V24.221z"/>
</g>
<g>
	<rect x="76.001" y="11.808" fill="#010202" width="1.652" height="12.413"/>
</g>
</svg>
